<svg width="33" height="32" viewBox="0 0 33 32" fill="none" xmlns="http://www.w3.org/2000/svg">
<g id="Symbol">
<path id="Oval" d="M16.9308 32C25.7673 32 32.9308 24.8366 32.9308 16C32.9308 7.16344 25.7673 0 16.9308 0C8.09423 0 0.930786 7.16344 0.930786 16C0.930786 24.8366 8.09423 32 16.9308 32Z" fill="url(#paint0_linear_42_39)"/>
<path id="Path-3" fill-rule="evenodd" clip-rule="evenodd" d="M8.17331 15.8312C12.8376 13.799 15.9479 12.4593 17.5042 11.812C21.9475 9.96384 22.8708 9.64279 23.4726 9.63219C23.605 9.62986 23.9009 9.66266 24.0926 9.81821C24.2545 9.94956 24.299 10.127 24.3203 10.2515C24.3416 10.376 24.3682 10.6597 24.3471 10.8814C24.1063 13.4114 23.0644 19.5509 22.5344 22.3846C22.3101 23.5836 21.8684 23.9856 21.4409 24.0249C20.5118 24.1104 19.8062 23.4109 18.9063 22.821C17.4981 21.8979 16.7025 21.3233 15.3356 20.4225C13.7559 19.3815 14.78 18.8093 15.6802 17.8743C15.9158 17.6296 20.0097 13.9059 20.0889 13.5681C20.0988 13.5258 20.108 13.3684 20.0145 13.2852C19.9209 13.2021 19.7828 13.2305 19.6832 13.2531C19.542 13.2852 17.2923 14.7721 12.9343 17.7139C12.2958 18.1524 11.7174 18.366 11.1992 18.3548C10.6279 18.3425 9.52897 18.0318 8.71204 17.7662C7.71004 17.4405 6.91367 17.2683 6.98301 16.7152C7.01913 16.427 7.4159 16.1324 8.17331 15.8312Z" fill="white"/>
</g>
<defs>
<linearGradient id="paint0_linear_42_39" x1="16.9308" y1="0" x2="16.9308" y2="31.7627" gradientUnits="userSpaceOnUse">
<stop stop-color="#2AABEE"/>
<stop offset="1" stop-color="#229ED9"/>
</linearGradient>
</defs>
</svg>
