<svg width="32" height="32" viewBox="0 0 32 32" fill="none" xmlns="http://www.w3.org/2000/svg">
<g id="Group 1">
<path id="Vector" d="M8.79487 26.9259L9.27638 27.2113C11.2997 28.4119 13.6193 29.0469 15.9847 29.0482H15.9899C23.2542 29.0482 29.1666 23.1372 29.1697 15.8722C29.1708 12.3514 27.8014 9.04087 25.3129 6.55054C22.8242 4.06029 19.5154 2.688 15.9948 2.68655C8.7247 2.68655 2.81243 8.59677 2.80954 15.8615C2.80855 18.351 3.50507 20.7755 4.82452 22.8734L5.13822 23.3718L3.80638 28.2338L8.79487 26.9259ZM-0.00088501 32L2.24881 23.7856C0.861234 21.3816 0.131181 18.6543 0.132246 15.8604C0.135743 7.12002 7.24901 0.0090332 15.9899 0.0090332C20.2316 0.010858 24.2129 1.6618 27.207 4.65797C30.2007 7.65436 31.8487 11.6373 31.8473 15.8733C31.8435 24.6132 24.7293 31.7255 15.9899 31.7255C15.9893 31.7255 15.9902 31.7255 15.9899 31.7255H15.983C13.3293 31.7244 10.7215 31.0589 8.40544 29.7958L-0.00088501 32Z" fill="white"/>
<path id="Vector_2" d="M0.668383 15.8479C0.668383 18.5657 1.3787 21.1908 2.73758 23.507L0.544847 31.4441L8.6672 29.3131C10.8908 30.5485 13.4233 31.1661 15.9866 31.1661C24.4178 31.1661 31.3048 24.31 31.3048 15.8788C31.3048 11.7713 29.6988 7.94178 26.8267 5.03873C23.9236 2.16657 20.0941 0.560629 15.9866 0.560629C7.5554 0.560629 0.668383 7.41676 0.668383 15.8479Z" fill="url(#paint0_linear_42_30)"/>
<path id="Vector_3" d="M0.121283 15.8355C0.121283 18.6507 0.857075 21.37 2.26468 23.7693L-0.00668144 31.991L8.40693 29.7836C10.7103 31.0632 13.3335 31.703 15.9888 31.703C24.7223 31.703 31.8563 24.6011 31.8563 15.8675C31.8563 11.6127 30.1928 7.64586 27.2176 4.63871C24.2105 1.66356 20.2436 2.67029e-05 15.9888 2.67029e-05C7.25526 2.67029e-05 0.121283 7.10201 0.121283 15.8355ZM5.14386 23.3534L4.82395 22.8735C3.51232 20.7621 2.80852 18.3308 2.80852 15.8675C2.80852 8.5736 8.72684 2.68727 15.9888 2.68727C19.5078 2.68727 22.8348 4.06288 25.2982 6.52618C27.7934 9.02147 29.1691 12.3485 29.1691 15.8675C29.1691 23.1295 23.2507 29.0478 15.9888 29.0478C13.6215 29.0478 11.2861 28.408 9.27069 27.1923L8.79082 26.9044L3.80024 28.216L5.14386 23.3534Z" fill="url(#paint1_linear_42_30)"/>
<path id="Vector_4" fill-rule="evenodd" clip-rule="evenodd" d="M12.0266 9.23928C11.7298 8.57948 11.4173 8.56625 11.135 8.55469C10.9041 8.54481 10.6396 8.54542 10.3756 8.54542C10.1115 8.54542 9.68216 8.64464 9.31918 9.04114C8.95591 9.43764 7.93222 10.3961 7.93222 12.3455C7.93222 14.2951 9.35218 16.1787 9.55009 16.4433C9.74823 16.7075 12.2912 20.8357 16.3185 22.4239C19.6655 23.7438 20.3466 23.4812 21.0731 23.4152C21.7996 23.3492 23.4173 22.4569 23.7475 21.5317C24.0777 20.6066 24.0777 19.8137 23.9786 19.648C23.8796 19.4828 23.6154 19.3838 23.2192 19.1856C22.8229 18.9875 20.875 18.0288 20.5117 17.8967C20.1485 17.7647 19.8843 17.6986 19.6201 18.0953C19.3559 18.4915 18.5971 19.3838 18.3658 19.648C18.1347 19.9128 17.9036 19.9458 17.5073 19.7476C17.111 19.5489 15.8349 19.131 14.3211 17.7812C13.1432 16.731 12.348 15.4341 12.1168 15.0374C11.8856 14.6412 12.092 14.4265 12.2908 14.229C12.4687 14.0515 12.6871 13.7665 12.8852 13.5351C13.0829 13.3038 13.149 13.1386 13.281 12.8744C13.4131 12.6098 13.3471 12.3785 13.248 12.1803C13.149 11.9822 12.3789 10.0227 12.0266 9.23928Z" fill="white"/>
</g>
<defs>
<linearGradient id="paint0_linear_42_30" x1="15.9231" y1="31.4441" x2="15.9231" y2="0.560629" gradientUnits="userSpaceOnUse">
<stop stop-color="#20B038"/>
<stop offset="1" stop-color="#60D66A"/>
</linearGradient>
<linearGradient id="paint1_linear_42_30" x1="15.9234" y1="31.991" x2="15.9234" y2="2.67029e-05" gradientUnits="userSpaceOnUse">
<stop stop-color="white"/>
<stop offset="1" stop-color="white"/>
</linearGradient>
</defs>
</svg>
